<svg xmlns="http://www.w3.org/2000/svg" viewBox="0 0 523 324" fill="none" role="img" aria-label="P&amp;D Truck Rental">
  <path d="M0 323.265V0.847198H130.246C152.639 0.847198 172.241 5.57369 189.033 15.0178C205.825 24.4618 218.89 37.7406 228.227 54.8451C237.555 71.9497 242.228 91.9437 242.228 114.827C242.228 137.915 237.439 157.909 227.862 174.809C218.284 191.708 204.88 204.72 187.642 213.851C170.403 222.983 150.294 227.549 127.303 227.549H49.5033V159.541H110.796C120.419 159.541 128.65 157.731 135.472 154.11C142.294 150.49 147.556 145.317 151.239 138.602C154.922 131.887 156.768 123.959 156.768 114.827C156.768 105.597 154.931 97.6957 151.239 91.1321C147.556 84.5775 142.303 79.5388 135.472 76.0163C128.641 72.5026 120.419 70.7458 110.796 70.7458H81.9199V323.265H0Z" fill="#5A4B9F"/>
  <path d="M368.515 322.427H249.809V0H367.311C399.041 0 426.49 6.42981 449.632 19.2894C472.783 32.1491 490.655 50.6181 503.264 74.7053C515.865 98.7926 522.17 127.633 522.17 161.218C522.17 194.803 515.892 223.643 503.336 247.731C490.779 271.818 473.006 290.296 450.007 303.147C427.007 315.997 399.843 322.427 368.515 322.427ZM333.566 248.114H365.501C380.768 248.114 393.797 245.546 404.588 240.4C415.378 235.254 423.619 226.39 429.29 213.798C434.962 201.206 437.798 183.673 437.798 161.218C437.798 138.763 434.909 121.23 429.139 108.638C423.36 96.0459 414.924 87.1726 403.83 82.0359C392.736 76.8902 379.145 74.3219 363.084 74.3219H333.557V248.114H333.566Z" fill="#5A4B9F"/>
  <path d="M444.995 42.2263H291.937V282.359H444.995V42.2263Z" fill="#5A4B9F"/>
  <path d="M165.276 54.1049H75.5525V174.176H165.276V54.1049Z" fill="#5A4B9F"/>
  <path d="M157.651 42.2352L26.8607 118.225L157.651 194.223V42.2352Z" fill="white"/>
  <path d="M303.387 58.118L483.966 162.297L303.387 266.476V58.118Z" fill="white"/>
  <path d="M319.404 94.6636H140.439V155.091H319.404V94.6636Z" fill="white"/>
</svg>
